# xmcd CD database file
#
# Track frame offsets:
#	150
#	19438
#	42837
#	57610
#	77034
#	91383
#	106920
#	128674
#	145041
#	164930
#	178477
#	190245
#
# Disc length: 2955 seconds
#
# Revision: 0
# Processed by: cddbd v1.5.2PL0 Copyright (c) Steve Scherf et al.
# Submitted via: CDex 1.51
#
DISCID=ae0b890c
DTITLE=Anna Scionti - Orphan Diary
DYEAR=2019
DGENRE=Blues
TTITLE0=Trouble In My Head
TTITLE1=You're My Keeper
TTITLE2=Pocket Full Of Love
TTITLE3=Too Much Drinking
TTITLE4=Bury My Hurt
TTITLE5=Never Let Her Go
TTITLE6=All I Want Is Her Back
TTITLE7=This World
TTITLE8=8-Wheeler Gang
TTITLE9=Black Dog Monday
TTITLE10=Keep Your Money Bag Full
TTITLE11=I Always Wondered
EXTD=YEAR: 2019
EXTT0=
EXTT1=
EXTT2=
EXTT3=
EXTT4=
EXTT5=
EXTT6=
EXTT7=
EXTT8=
EXTT9=
EXTT10=
EXTT11=
PLAYORDER=
